<?xml version="1.0" encoding="UTF-8"?>
<svg id="Laag_1" data-name="Laag 1" xmlns="http://www.w3.org/2000/svg" viewBox="0 0 355.61 206.1">
  <defs>
    <style>
      .cls-1 {
        fill: #192e4d;
      }

      .cls-1, .cls-2, .cls-3, .cls-4, .cls-5, .cls-6 {
        stroke-width: 0px;
      }

      .cls-2 {
        fill: #1e3056;
      }

      .cls-3 {
        fill: #203659;
      }

      .cls-4 {
        fill: #a3d2d2;
      }

      .cls-5 {
        fill: #cee8e6;
      }

      .cls-6 {
        fill: #fafaf6;
      }
    </style>
  </defs>
  <path class="cls-3" d="m19.07,182.56c-9.66-2.75-18.37-13-18.61-23.28-.4-17.63-.84-35.32.12-52.9.46-8.36,2.89-17.03,7.17-24.53,5.23-9.16,13.59-14.14,24.8-14.99-7.55-13.49-9.26-27.11-3.27-41.16,4.1-9.62,11.3-17.29,20.33-21.37,20.82-9.41,39.25-3.72,55.71,19.6,3.59-2.96,6.42-6.79,10.5-9.13,3.89-2.23,7.65-4.82,12.49-4.17,1.66.22,2.54-1,3.65-1.82,9.85,1.06,19.72.28,29.57.33,14,.07,28-.2,42-.33.29,1.2,1.03,1.66,2.29,1.8,17.36,1.92,29.11,14.55,29.7,31.88.04,1.08.2,2.19,0,3.24-.82,4.53,1.41,5.34,5.43,5.3,17.82-.17,35.65-.06,53.47-.05,9.72,0,19.45-.18,29.17.06,13.26.34,22.5,6.89,25.96,18.11,2,6.5,2.06,13.31-2.14,18.64-4.04,5.13-4.16,10.22-2.7,15.75,1.12,4.23.94,9.18,5.35,11.99-1.46,1.05-.82,2.3-.08,3.29,2.88,3.83,3.66,8.2,3.14,12.76-.93,8.16.07,16.29,0,24.44-.11,13.64-7.27,21.17-19.55,24.9-1.26.38-2.62,0-2.58-1.03.18-4.09-3.26-6.08-4.85-9.12.72,0,1.44,0,2.16-.01.67-.28,1.35-.56,2.02-.84.52-.41,1.04-.83,1.56-1.24,1.25,1.45,2.79,2.62,4.42.93,1.52-1.57,4.64-2.57,2.98-5.85-.01-.31.14-.48.45-.5.18.07.37.15.55.22-.12-.12-.24-.24-.36-.35.11-.71.21-1.42.32-2.13,1.12-2.16,1.47-4.32-.03-6.47-5.3-1.93-10.86.1-16.21-1.08,1.1-1.25,2.62-.85,4-1.12,2.42-.47,6.71,1.5,6.82-1.47.1-2.51-4.42-2.65-7.26-2.81-1.08-.06-2.16-.09-3.23,0-2.64.23-4.93-.89-5.82-3.09-1.42-3.52-4-3.43-6.96-3.43-33.06.04-66.13.03-99.19,0-2.09,0-4.35.65-6.22-.95,1.43-.09,2.86-.25,4.29-.24,40.51.03,81.01.07,121.52.13q10.16.01,9.37-10.37c-.34-4.4-2.45-5.83-6.38-3.98-3.17,1.49-6.42,2.28-9.89,2.28-66.07,0-132.14.02-198.21-.04-6.17,0-12.36-.85-17.53-4.47-3.15-2.2-5.29-1.67-8,.45-3.95,3.1-8.58,4.24-13.64,4.21-17.82-.12-35.65-.19-53.47-.07-6.72.05-13.3-.11-19.4-3.34.35-.88,2.33-1.33,1.15-2.48-1.21-1.17-3.07-.56-4.65-.45-1,.07-2.02,1.11-1.29,1.73,2.84,2.39,1.23,6.99,4.68,8.95q.61,7.51,8.18,7.5c1.97,0,3.94.16,5.91.24-3.77,2.35-8.35-.39-12.46,1.84,1.48,2.4,3.62,2.26,5.7,2.34,1.73.07,4.12-.18,3.98,2.28-.13,2.4-2.57,2.05-4.26,1.98-2.37-.09-4.56.6-6.82,1.08-1.47.31-2.91.66-3.14,2.38-.27,2.04,1.09,2.82,2.87,3.08-.13,4.29,1.03,8.04,4.45,10.87.44.3.88.6,1.32.91l-.06-.17c-.06,2.85,2.16,3.06,4.12,3.57-.09,4.12,1.38,8.84-5.77,8.94-2.83.04.09,1.83.37,2.83Zm204.21-69.73v.23c12.25,0,24.51,0,36.76,0,20.36-.01,40.72.01,61.08-.06,6.94-.03,10.94-2.56,10.27-6.66-.98-6-6.1-3.9-9.59-3.92-27.39-.19-54.78-.12-82.16-.18-4.68-.01-9.38-.05-14.03-.49-8.85-.83-14.25-9.52-14.79-16.83-.23-3.12,1.37-5.61,4.37-6.82,2.57-1.04,4.58.16,6.1,2.19,3.38,4.51,8.01,5.55,13.36,5.52,28.83-.12,57.66-.07,86.49-.13,2.51,0,5.12.02,7.5-.63,4.59-1.24,7.7-4.49,7.77-9.26.06-4.61-3.09-7.44-7.39-8.93-2.45-.85-4.97-.73-7.49-.73-26.49.03-52.98.13-79.46.09-15.4-.03-21.57-6.34-21.58-21.72-.02-13.59-6.81-20.62-20.49-20.71-21.26-.13-42.52-.11-63.79.02-13,.08-24.28,11.01-25.47,24-.77,8.43-2.84,16.55-8.65,23.11-1.87,2.11-1.55,3.38.21,5.38,4.46,5.07,6.8,11.2,6.2,17.93-.96,10.79,6.67,18.9,19.11,18.74,31.89-.43,63.78-.14,95.68-.14Zm-154.55-41.72c15.58-.04,27.25-11.75,27.15-27.23-.1-14.92-13.42-27.48-28.98-27.34-14.93.13-26.16,11.48-26.15,26.46.01,15.57,12.54,28.16,27.99,28.11Zm-11.61,44.64v-.03c9.72,0,19.45.08,29.17-.03,5.33-.06,8.46-2.59,8.46-7.03,0-5.21-.32-10.43-.79-15.62-.38-4.24-2.82-6.43-7.26-6.13-2.33.16-4.68.18-7.02.19-9.16.01-18.63,1.27-27.07-3.16-6.66-3.5-13.49-3.36-20.45-2.97-8.27.47-13.1,5.76-13.27,14.02-.08,3.6-.06,7.2-.04,10.81.03,7.14,2.57,9.85,9.65,9.93,9.54.1,19.09.02,28.63.02Z"/>
  <path class="cls-2" d="m19.07,182.56c-.27-1-3.19-2.79-.37-2.83,7.15-.1,5.68-4.82,5.77-8.94,100.56,0,201.12-.02,301.68-.02,1.59,3.04,5.02,5.03,4.85,9.12-.05,1.03,1.31,1.41,2.58,1.03,12.28-3.73,19.45-11.26,19.55-24.9.06-8.14-.93-16.28,0-24.44.52-4.57-.26-8.94-3.14-12.76-.74-.99-1.38-2.23.08-3.29,3.62,3.12,5.43,7.21,5.49,11.86.14,10.63,0,21.26-.02,31.89,0,9.97-12.49,24-22.62,24.01-3.57,0-4.18,1.75-4.11,4.68.08,3.42.11,6.86-.12,10.27-.32,4.78-3.64,7.95-7.9,7.86-4.45-.09-7.82-3.71-7.91-8.51,0-.18.03-.36.03-.54.04-13.84.04-13.88-13.64-13.89-83.21-.04-166.43-.02-249.64-.23-5.61-.01-7.48,1.66-6.79,7.06.37,2.84.27,5.77.1,8.64-.26,4.42-2.69,6.97-7.18,7.22-4.34.25-7.68-2.55-8.07-6.96-.27-3.04-.29-6.14-.03-9.18.36-4.18-.21-7.12-5.49-6.38-.98.14-2.07-.49-3.11-.77Z"/>
  <path class="cls-4" d="m203.53,8.81c-14,.13-28,.4-42,.33-9.86-.05-19.73.73-29.57-.33,23.86-.68,47.71-.74,71.57,0Z"/>
  <path class="cls-6" d="m223.28,112.83c-31.89,0-63.79-.29-95.68.14-12.43.17-20.07-7.95-19.11-18.74.6-6.72-1.74-12.86-6.2-17.93-1.76-2-2.08-3.27-.21-5.38,5.81-6.56,7.87-14.68,8.65-23.11,1.19-12.99,12.46-23.92,25.47-24,21.26-.12,42.52-.15,63.79-.02,13.69.09,20.48,7.12,20.49,20.71.02,15.38,6.19,21.7,21.58,21.72,26.49.04,52.97-.06,79.46-.09,2.52,0,5.03-.13,7.49.73,4.3,1.5,7.45,4.32,7.39,8.93-.06,4.77-3.18,8.02-7.77,9.26-2.39.64-4.99.62-7.5.63-28.83.06-57.66,0-86.49.13-5.35.02-9.98-1.01-13.36-5.52-1.52-2.03-3.53-3.23-6.1-2.19-2.99,1.21-4.6,3.69-4.37,6.82.54,7.31,5.94,16,14.79,16.83,4.65.44,9.35.48,14.03.49,27.39.06,54.78-.01,82.16.18,3.49.02,8.61-2.08,9.59,3.92.67,4.1-3.34,6.63-10.27,6.66-20.36.08-40.72.05-61.08.06-12.25,0-24.51,0-36.76,0v-.23Z"/>
  <path class="cls-4" d="m19.09,166.49c-3.42-2.83-4.58-6.59-4.45-10.87.76-1.36,2.09-1.08,3.3-1.13,7.23-.35,14.47-.7,21.7-1.05,25.21-.04,50.42-.07,75.63-.11,2.19,0,4.37,0,6.56,0,3.22,0,6.44,0,9.67,0,12.99.01,25.97.02,38.96.03,12.24,0,24.49-.01,36.73-.02,4.35,0,8.69,0,13.04,0,6.3.08,12.6.24,18.9.24,26.12-.02,52.24-.09,78.35-.15,2.18,0,4.36.01,6.55.02,5.35,1.18,10.91-.85,16.21,1.08-2.52.04-5.04.13-7.55.13-57.95,0-115.9,0-173.85-.01-1.71,0-3.42,0-5.13,0,1.86.97,3.64.97,5.42.97,57.59,0,115.18.08,172.77-.09,4.51-.01,7.47.74,8.38,5.47-.11.71-.21,1.42-.32,2.13,0,0-.2.13-.2.13-.31.02-.46.18-.45.5-1.99,2.35-4.72,3.6-7.4,4.92-.52.41-1.04.83-1.56,1.26-.09-.85-.56-1.26-1.44-1.22-1.97-.09-3.94-.27-5.91-.27-97.88.01-195.76.03-293.65.1-3.09,0-6.09-.22-8.99-1.32,0,0,.06.17.06.17-.44-.3-.88-.6-1.32-.91Z"/>
  <path class="cls-6" d="m28.77,140.63c-1.97-.08-3.94-.24-5.91-.24q-7.57,0-8.18-7.5c0-1.8,0-3.59,0-5.39.25-.82-.23-1.16-.89-1.38.34-.33.67-.65,1.01-.98,6.11,3.23,12.69,3.38,19.4,3.34,17.82-.12,35.65-.05,53.47.07,5.06.04,9.69-1.1,13.64-4.21,2.7-2.12,4.85-2.65,8-.45,5.17,3.61,11.36,4.46,17.53,4.47,66.07.06,132.14.04,198.21.04,3.47,0,6.71-.8,9.89-2.28,3.93-1.84,6.05-.41,6.38,3.98q.79,10.41-9.37,10.37c-40.51-.05-81.01-.1-121.52-.13-1.43,0-2.86.16-4.3.24-4.69,0-9.38,0-14.08,0-.71,0-1.43,0-2.14,0-4.7,0-9.39.01-14.09.02-28.81,0-57.63,0-86.44.01h-3.31c-5.74,0-11.49,0-17.23,0-3.63,0-7.25.01-10.88.02-1.42,0-2.84,0-4.26,0-3.26,0-6.53,0-9.79,0-4.31-.44-8.61-.43-12.92,0-.74,0-1.48,0-2.22,0Z"/>
  <path class="cls-2" d="m86.08,140.61c1.1,0,2.21,0,3.31,0,1.35,1.26,3.03.93,4.62.93,25.73.02,51.47.02,77.2,0,1.59,0,3.27.32,4.62-.95,4.7,0,9.39-.01,14.09-.02.72.96,1.43.95,2.14,0,4.69,0,9.38,0,14.08,0,1.87,1.61,4.13.95,6.22.95,33.06.04,66.13.05,99.19,0,2.96,0,5.54-.09,6.96,3.43.89,2.2,3.19,3.32,5.82,3.09,1.07-.09,2.16-.06,3.23,0,2.84.15,7.36.3,7.26,2.81-.11,2.97-4.41,1-6.82,1.47-1.38.27-2.9-.13-4,1.12-2.18,0-4.36-.01-6.55-.02-.95-1.05-2.22-1.03-3.49-1.06-12.66-.35-25.32-.61-37.97-1.1-17.45-.68-34.82,1.71-52.26,1.11-1.27-.04-2.54-.02-3.53.96-4.35,0-8.69,0-13.04,0-1.65-.65-3.28-1.83-4.94-1.87-9.69-.2-19.38-.13-29.07-.16-1.42,0-2.41.56-2.72,2.04-12.99-.01-25.97-.02-38.96-.03-3.22-1.49-6.44-1.49-9.67,0-2.19,0-4.37,0-6.56,0-1.34-1.27-3.03-.94-4.62-.94-22.15-.01-44.29-.01-66.44,0-1.59,0-3.28-.32-4.57,1.05-7.23.35-14.47.7-21.7,1.05-1.21.06-2.53-.22-3.3,1.13-1.78-.27-3.14-1.04-2.87-3.08.23-1.71,1.67-2.07,3.14-2.38,2.26-.48,4.45-1.17,6.82-1.08,1.69.07,4.13.42,4.26-1.98.14-2.46-2.25-2.21-3.98-2.28-2.08-.08-4.22.06-5.7-2.34,4.11-2.24,8.69.51,12.46-1.84.74,0,1.48,0,2.22,0,4.31,1.47,8.61,1.46,12.92,0,3.26,0,6.53,0,9.79,0,1.42,1.26,2.84,1.25,4.26,0,3.63,0,7.25-.01,10.88-.02,5.74,1.51,11.49,1.51,17.23,0Z"/>
  <path class="cls-6" d="m68.73,71.12c-15.45.04-27.97-12.54-27.99-28.11-.01-14.97,11.21-26.33,26.15-26.46,15.56-.13,28.88,12.43,28.98,27.34.11,15.48-11.56,27.18-27.15,27.23Z"/>
  <path class="cls-6" d="m57.11,115.76c-9.54,0-19.09.07-28.63-.02-7.08-.07-9.62-2.78-9.65-9.93-.02-3.6-.04-7.21.04-10.81.18-8.26,5-13.55,13.27-14.02,6.96-.4,13.79-.53,20.45,2.97,8.43,4.43,17.91,3.18,27.07,3.16,2.34,0,4.69-.03,7.02-.19,4.45-.31,6.88,1.88,7.26,6.13.47,5.19.79,10.41.79,15.62,0,4.44-3.13,6.97-8.46,7.03-9.72.11-19.45.03-29.17.03v.03Z"/>
  <path class="cls-1" d="m20.35,167.22c2.9,1.1,5.89,1.32,8.99,1.32,97.88-.06,195.76-.09,293.65-.1,1.97,0,3.94.18,5.9.27-.19.68-.39,1.36-.58,2.04-.72,0-1.44,0-2.16.01-100.56,0-201.12.01-301.68.02-1.96-.51-4.18-.72-4.12-3.57Z"/>
  <path class="cls-5" d="m340.25,160.99c-.91-4.74-3.87-5.49-8.38-5.47-57.59.17-115.18.1-172.77.09-1.78,0-3.56,0-5.42-.97,1.71,0,3.42,0,5.13,0,57.95,0,115.9.01,173.85.01,2.52,0,5.04-.08,7.55-.13,1.5,2.15,1.15,4.31.03,6.47Z"/>
  <path class="cls-2" d="m14.8,125.13c-.34.33-.67.65-1.01.98.3.46.6.92.89,1.38,0,1.8,0,3.59,0,5.39-3.45-1.96-1.83-6.56-4.68-8.95-.74-.62.29-1.66,1.29-1.73,1.58-.11,3.44-.72,4.65.45,1.18,1.15-.8,1.61-1.15,2.48Z"/>
  <path class="cls-1" d="m331.89,168.67c2.68-1.32,5.4-2.57,7.4-4.92,1.67,3.27-1.46,4.27-2.98,5.85-1.63,1.69-3.17.52-4.42-.93Z"/>
  <path class="cls-1" d="m339.74,163.25s.2-.13.2-.13c.12.12.24.24.36.35-.18-.07-.37-.15-.55-.22Z"/>
  <path class="cls-1" d="m19.09,166.49c.44.3.88.6,1.32.91-.44-.3-.88-.6-1.32-.91Z"/>
  <path class="cls-2" d="m328.31,170.76c.19-.68.38-1.36.58-2.04.88-.05,1.35.36,1.44,1.22-.67.26-1.34.54-2.02.83Z"/>
  <path class="cls-3" d="m220.21,153.34c.99-.99,2.26-1.01,3.53-.96,17.44.6,34.81-1.79,52.26-1.11,12.65.49,25.32.75,37.97,1.1,1.27.04,2.54,0,3.49,1.06-26.12.05-52.24.13-78.35.15-6.3,0-12.6-.15-18.9-.24Z"/>
  <path class="cls-3" d="m39.64,153.43c1.29-1.38,2.98-1.05,4.57-1.05,22.15-.02,44.29-.02,66.44,0,1.59,0,3.28-.32,4.62.94-25.21.04-50.42.07-75.63.11Z"/>
  <path class="cls-3" d="m170.44,153.35c.31-1.48,1.3-2.04,2.72-2.04,9.69.03,19.38-.04,29.07.16,1.66.03,3.29,1.21,4.94,1.87-12.24,0-24.49.01-36.73.02Z"/>
  <path class="cls-3" d="m121.82,153.32c3.22-1.48,6.44-1.49,9.67,0-3.22,0-6.44,0-9.67,0Z"/>
  <path class="cls-3" d="m175.83,140.6c-1.34,1.27-3.03.95-4.62.95-25.73.01-51.47.01-77.2,0-1.59,0-3.27.33-4.62-.93,28.81,0,57.63,0,86.44-.01Z"/>
  <path class="cls-3" d="m86.08,140.61c-5.74,1.51-11.49,1.51-17.23,0,5.74,0,11.49,0,17.23,0Z"/>
  <path class="cls-3" d="m43.92,140.63c-4.31,1.46-8.61,1.47-12.92,0,4.31-.43,8.61-.44,12.92,0Z"/>
  <path class="cls-3" d="m57.97,140.62c-1.42,1.26-2.84,1.26-4.26,0,1.42,0,2.84,0,4.26,0Z"/>
  <path class="cls-3" d="m192.06,140.58c-.71.95-1.43.96-2.14,0,.71,0,1.43,0,2.14,0Z"/>
  <path class="cls-3" d="m14.68,127.49c-.3-.46-.6-.92-.89-1.38.66.22,1.15.56.89,1.38Z"/>
</svg>