<?xml version="1.0" encoding="UTF-8"?>
<svg id="Laag_1" data-name="Laag 1" xmlns="http://www.w3.org/2000/svg" viewBox="0 0 353.06 222.24">
  <defs>
    <style>
      .cls-1 {
        fill: #192e4d;
      }

      .cls-1, .cls-2, .cls-3, .cls-4, .cls-5 {
        stroke-width: 0px;
      }

      .cls-2 {
        fill: #1e3056;
      }

      .cls-3 {
        fill: #203659;
      }

      .cls-4 {
        fill: #a3d2d2;
      }

      .cls-5 {
        fill: #fafaf6;
      }
    </style>
  </defs>
  <path class="cls-3" d="m31,220.75c-2.75-1.19-3.27-3.59-3.33-6.21-.06-2.88-.26-5.78-.01-8.64.33-3.84-.88-4.91-4.95-6.08-10.88-3.12-22.07-10.82-22.54-26.71-.35-12.06-.08-24.14-.06-36.21,0-3.93,1.2-7.52,3.86-10.4,1.78-1.93,2.19-3.4,1.08-6.08-5.88-14.17-1.29-30.96,11.15-40.21,3.55-2.64,3.17-3.42.18-6.35C-.51,57.28-2.12,32.57,11.21,15.56,24.89-1.9,49.62-5.05,67.84,8.08c6.68,4.82,11.4,11.26,14.86,19.45,4.1-7.05,10.17-10.96,17.28-13.07,14.04-4.18,25.08,1.85,35.36,10.69,8.49,7.3,16.54,14.74,29.62,13.47,13.38-1.3,26.99-.23,40.49-.41,16.08-.21,28.6,6.14,37.25,19.77,3.17,5,6.22,10.08,9.06,15.27,2.24,4.08,5.23,5.59,10.01,5.52,18.72-.29,37.46-.14,56.19-.08,3.04,0,6.09.37,9.13.56h-69.89c0,.36-.01.72-.02,1.07,1.73,0,3.46,0,5.19,0,19.75,0,39.5.16,59.25-.14,3.68-.05,7.26,2.76,10.95.29,16.02,4.48,23.39,21.23,16.11,37.69-1.8,4.07-2.43,6.78,1.01,10.22,2.88,2.88,3.32,7.07,3.31,11.13-.01,11.17.18,22.34-.06,33.5-.24,10.81-5.29,18.74-14.99,23.82-3.15,1.65-6.04,3.6-9.78,3.46-2.54-.09-2.82,1.74-2.82,3.66,0,3.6.21,7.21.05,10.8-.21,4.73-3.18,7.58-7.43,7.49-4.47-.1-7.64-3.28-7.84-7.88-.02-.36,0-.72,0-1.08.03-13.26.03-13.3-13.48-13.3-82.46,0-164.92,0-247.37.04-1.78,0-3.57.24-5.35.36-.36,0-.72.01-1.08.02,1.74-1.93,4.04-1.15,6.11-1.15,26.26-.05,52.52,0,78.78-.1,2.06,0,4.89,1.34,5.92-2.03,4.33,0,8.67,0,13,0,.52,2.59,2.6,2.06,4.31,2.06,32.79.02,65.58.02,98.37,0,1.71,0,3.79.52,4.31-2.06,7.92,0,15.85.07,23.77-.06,1.9-.03,5.15,1.15,5.13-2.1-.02-3.11-1.1-7.41-4.91-7.32-12.14.28-24.4-2.14-36.43,1.46-3.1.93-6.42.94-9.54-.33-5.06-2.05-10.14-2.15-15.18-.07-2.33.96-4.39.63-6.77.04-6.73-1.66-13.63-3.67-19.69,2.06-1.43,1.35-3.42.92-5.19.9-13.46-.13-26.84-1.76-40.24-2.62-4.7-.3-8.8,1.62-13.55.88-6.81-1.06-14.34-2.98-20.55-1.9-11.53,1.99-23.5.18-34.75,4.51-2.74,1.06-3.97,1.75-3.73,4.53-8.63,0-17.26.13-25.89-.03-3.67-.07-5.33,1.49-5.45,5.01-.21,6.07-.42,12.14-.63,18.2v-.32s-.03.31-.03.31c-3.04-.4-6.1-1.21-9.02.49ZM118.68,66.83c-.64-4.93-.1-8.93,6.44-8.22,2.74,2.01,5.78,3.72,8.18,6.08,10.94,10.8,12.14,10.85,7.8,24.97-2.11,6.87-4.73,13.62-5.66,20.81-.46,3.58.62,6.61,4.46,7.54,3.65.89,6.6-.64,7.66-4.25,4.12-13.97,8.11-27.97,11.97-42.01,1.38-5.02-.45-9.37-4.41-12.52-11.98-9.51-23.89-19.15-36.84-27.32-7.55-4.76-15.09-3.6-21.83,2.31-3.6,3.16-6.11,7.11-7.82,11.51-2.92,7.53-4.93,15.42-9.91,22.05-1.47,1.96-.76,3.2,1.87,4.04,19.24,6.1,25.08,14.44,25.16,35.41.04,10.68.04,10.56,10.78,10.16,2.76-.11,3.69-1.04,4.04-3.67,1.36-10.03,4.86-19.51,7.84-29.12,3.25-1.62,3.22-6.05,2.23-7.08-3.54-3.74-5.53-9.53-11.67-10.34l-.31-.34Zm132.65,26.54h75.42c-.5-1.01-1.01-1.18-1.52-1.18-23.9-.01-47.81-.02-71.71-.01-1.42,0-2.9-.19-4.12.84-2.21-.55-3.82-2.01-5.13-3.73-5.02-6.59-9.64-13.44-13.28-20.9-3.76-7.71-9.22-14.01-18.05-14.47-13.93-.72-27.92-.19-43.15-.19,9.35,10.94,3.92,21.61,1.08,32.24-2.47,9.21-5.07,18.38-7.82,27.51-.98,3.24-.06,3.91,3.1,3.88,16.02-.16,32.05-.11,48.07-.14,2.78,0,5.56,0,8.74,0-3.05-6.37-6.55-11.52-10.15-16.62-3.22-4.55-6.46-9.1-9.33-13.87-1.95-3.24-.89-6.38,2.12-8.51,3.1-2.2,5.85-.99,8.04,1.66,1.71,2.08,3.19,4.35,4.82,6.5,6.05,8.03,11.25,16.67,18.47,23.87,3.67,3.66,7.52,5,12.37,4.99,22.87-.05,45.73-.02,68.6-.03,3.06,0,6.13.03,9.18-.21,5.66-.44,9.62-4.61,9.87-10.15.21-4.75-3.39-9.36-8.49-10.4-2.44-.5-5.01-.55-7.52-.55-21.07-.04-42.13,0-63.2-.05-2.14,0-4.27-.31-6.41-.48ZM15.94,159.16c-1.46,1.81-.14,2.13,1.27,2.23,5.54.4,11.08,1,16.63,1.06,13.46.15,26.92-.11,40.37.09,23.92.35,47.8-1.93,71.73-1.1,3.04.11,6.13.83,9.09.46,13.09-1.63,26.08.69,39.13.55,7.38-.08,14.8.44,22.13-.18,13.82-1.17,27.58-1.35,41.38.06,3.75.38,7.65.75,11.95-.66-1.94-1.91-3.8-1.32-5.44-1.33-10.26-.06-20.53,0-30.79-.05-1.92,0-4,.56-5.67-1.01,16.6-.49,33.19-.41,49.79.01.16.59.14,1.38,1.01,1.38.89,0,.83-.79.98-1.38,14.03-.17,28.07-.27,42.1-.54,5.37-.1,12.4,2.22,15.66-.93,3.54-3.43,1.06-10.56,1.19-16.07.2-8.83-.72-9.58-9.46-9.58-98.68-.03-197.36-.06-296.04-.09-3.96,0-7.92.04-11.88-.03-2.87-.05-5.52,1.11-5.76,3.82-.68,7.75-1.82,15.59.63,23.28Zm160.42,12.37v.07c-52.07,0-104.14-.01-156.22.05-1.79,0-4.3-1.12-5.25,1.33-.82,2.11.06,4.27,1.39,6.09,3.5,4.76,8.22,6.37,14.09,6.37,65.04-.1,130.09-.03,195.13-.03,32.97,0,65.95-.09,98.92-.08,4.98,0,9.3-1.2,12.26-5.46,1.44-2.08,2.99-4.48,1.8-6.99-1.16-2.45-3.89-1.29-5.9-1.29-52.07-.06-104.14-.05-156.21-.05ZM17,41.58c-1.06,15.78,16.06,28.42,26.71,28.75,12.22.38,28.46-12.48,28-27.3-.39-12.69-11.28-27.48-27.63-27.79-15.92-.3-26.63,12.7-27.08,26.34Zm39.92,78.5c9.73,0,19.45.04,29.18-.03,2.52-.02,5.38.02,5.45-3.65.13-6.48.24-12.97.12-19.45-.06-3.23-1.93-5.77-4.25-7.88-4.76-4.33-24.64-7.08-29.98-3.55-4.69,3.1-9.57,3.77-14.87,3.73-3.96-.03-7.95-.14-11.87.27-6.42.67-9.55,4.25-9.75,10.73-.13,4.14-.09,8.29-.05,12.43.06,5.78,1.52,7.32,7.39,7.38,9.54.09,19.09.02,28.64,0Z"/>
  <path class="cls-1" d="m40.05,220.27c.21-6.07.42-12.14.63-18.2.12-3.52,1.78-5.08,5.45-5.01,8.63.15,17.26.04,25.89.03,20.54.01,41.09.02,61.63.03-1.03,3.37-3.86,2.02-5.92,2.03-26.26.09-52.52.05-78.78.1-2.06,0-4.37-.78-6.11,1.15,0,5.36,0,10.71,0,16.07-1.1,1.14-1.1,3.1-2.81,3.8Z"/>
  <path class="cls-1" d="m332.56,80.47c-3.68,2.46-7.27-.35-10.95-.29-19.75.3-39.5.14-59.25.14-1.73,0-3.46,0-5.19,0,0-.36.01-.72.02-1.07h69.89c1.97-.22,3.8.15,5.47,1.23Z"/>
  <path class="cls-4" d="m42.86,216.47c0-5.36,0-10.71,0-16.07.36,0,.72-.01,1.08-.02-.74,5.34,1.09,10.84-1.07,16.09Z"/>
  <path class="cls-1" d="m31,220.75c2.92-1.7,5.98-.88,9.02-.49-1.57,1.92-3.62,2.1-5.86,1.61-.77-1.02-1.89-1.04-3.02-1.04l-.14-.08Z"/>
  <path class="cls-3" d="m31.14,220.83c1.12,0,2.24.02,3.02,1.04-1.23.31-2.24-.03-3.02-1.04Z"/>
  <path class="cls-5" d="m277.51,159.29c-16.6-.42-33.19-.5-49.79-.01-1.79-.08-3.59-.23-5.38-.23-56.92-.02-113.84-.04-170.76-.03-11.88,0-23.76.09-35.64.14-2.44-7.69-1.3-15.53-.63-23.28.24-2.71,2.89-3.88,5.76-3.82,3.96.07,7.92.03,11.88.03,98.68.03,197.36.06,296.04.09,8.74,0,9.66.75,9.46,9.58-.13,5.51,2.35,12.64-1.19,16.07-3.26,3.16-10.29.83-15.66.93-14.03.27-28.07.37-42.1.54-.66,0-1.33,0-1.99,0Z"/>
  <path class="cls-5" d="m251.33,93.37c2.14.17,4.27.48,6.41.48,21.07.04,42.13,0,63.2.05,2.51,0,5.07.05,7.52.55,5.1,1.04,8.71,5.64,8.49,10.4-.25,5.54-4.21,9.71-9.87,10.15-3.05.24-6.12.21-9.18.21-22.87.02-45.73-.02-68.6.03-4.85,0-8.71-1.33-12.37-4.99-7.22-7.2-12.42-15.84-18.47-23.87-1.62-2.15-3.1-4.43-4.82-6.5-2.18-2.64-4.93-3.86-8.04-1.66-3.01,2.14-4.07,5.27-2.12,8.51,2.87,4.77,6.11,9.32,9.33,13.87,3.6,5.1,7.11,10.24,10.15,16.62-3.18,0-5.96,0-8.74,0-16.02.02-32.05-.02-48.07.14-3.16.03-4.08-.64-3.1-3.88,2.75-9.13,5.35-18.3,7.82-27.51,2.85-10.63,8.27-21.29-1.08-32.24,15.23,0,29.22-.53,43.15.19,8.84.46,14.29,6.76,18.05,14.47,3.64,7.46,8.26,14.31,13.28,20.9,1.31,1.72,2.92,3.18,5.13,3.73.64.12,1.29.23,1.93.35Z"/>
  <path class="cls-4" d="m176.36,171.53c52.07,0,104.14-.01,156.21.05,2.01,0,4.73-1.15,5.9,1.29,1.19,2.51-.36,4.91-1.8,6.99-2.96,4.27-7.27,5.47-12.26,5.46-32.97-.02-65.95.07-98.92.08-65.04,0-130.09-.06-195.13.03-5.87,0-10.59-1.6-14.09-6.37-1.34-1.82-2.21-3.98-1.39-6.09.96-2.45,3.46-1.33,5.25-1.33,52.07-.06,104.14-.05,156.22-.05v-.07Z"/>
  <path class="cls-5" d="m128.42,84.6c-2.98,9.61-6.48,19.09-7.84,29.12-.36,2.62-1.28,3.56-4.04,3.67-10.75.41-10.74.52-10.78-10.16-.08-20.98-5.92-29.31-25.16-35.41-2.63-.83-3.34-2.08-1.87-4.04,4.98-6.63,7-14.53,9.91-22.05,1.7-4.4,4.22-8.35,7.82-11.51,6.73-5.91,14.28-7.07,21.83-2.31,12.95,8.17,24.86,17.81,36.84,27.32,3.96,3.14,5.79,7.5,4.41,12.52-3.86,14.04-7.85,28.04-11.97,42.01-1.07,3.62-4.01,5.14-7.66,4.25-3.84-.93-4.92-3.96-4.46-7.54.92-7.19,3.55-13.94,5.66-20.81,4.34-14.12,3.14-14.17-7.8-24.97-2.39-2.36-5.43-4.07-8.18-6.08-2.52-2.81-5.53-3.01-7.75-.22-2.24,2.82-1.69,6.02,1.31,8.44,0,0,.31.34.31.34.73,3.69,3.97,5.37,6.45,7.42,3.45,2.85,4.8,5.83,2.99,10.01Z"/>
  <path class="cls-5" d="m17,41.58c.45-13.64,11.16-26.64,27.08-26.34,16.36.31,27.24,15.1,27.63,27.79.45,14.81-15.78,27.68-28,27.3-10.65-.33-27.77-12.97-26.71-28.75Z"/>
  <path class="cls-5" d="m56.92,120.09c-9.55,0-19.09.07-28.64-.02-5.87-.06-7.33-1.6-7.39-7.38-.04-4.14-.08-8.29.05-12.43.2-6.48,3.33-10.06,9.75-10.73,3.92-.41,7.91-.3,11.87-.27,5.29.04,10.18-.63,14.87-3.73,5.34-3.53,25.22-.78,29.98,3.55,2.32,2.11,4.19,4.65,4.25,7.88.12,6.48,0,12.97-.12,19.45-.07,3.67-2.94,3.63-5.45,3.65-9.73.07-19.45.03-29.18.03Z"/>
  <path class="cls-2" d="m133.65,197.12c-20.54-.01-41.09-.02-61.63-.03-.24-2.77.99-3.47,3.73-4.53,11.25-4.33,23.22-2.52,34.75-4.51,6.21-1.07,13.74.84,20.55,1.9,4.75.74,8.85-1.18,13.55-.88,13.41.86,26.79,2.48,40.24,2.62,1.78.02,3.76.45,5.19-.9,6.06-5.73,12.96-3.72,19.69-2.06,2.38.59,4.44.92,6.77-.04,5.03-2.07,10.12-1.98,15.18.07,3.12,1.27,6.44,1.26,9.54.33,12.03-3.6,24.29-1.17,36.43-1.46,3.81-.09,4.89,4.21,4.91,7.32.02,3.25-3.22,2.07-5.13,2.1-7.92.13-15.84.06-23.77.06-35.67,0-71.33,0-107,0-4.33,0-8.67,0-13,0Z"/>
  <path class="cls-1" d="m15.94,159.16c11.88-.05,23.76-.14,35.64-.14,56.92,0,113.84.01,170.76.03,1.79,0,3.59.15,5.38.23,1.66,1.58,3.75,1,5.67,1.01,10.26.05,20.53,0,30.79.05,1.64,0,3.5-.58,5.44,1.33-4.3,1.41-8.2,1.04-11.95.66-13.81-1.41-27.56-1.23-41.38-.06-7.33.62-14.75.1-22.13.18-13.04.14-26.04-2.17-39.13-.55-2.97.37-6.06-.36-9.09-.46-23.93-.83-47.8,1.45-71.73,1.1-13.46-.19-26.92.07-40.37-.09-5.55-.06-11.09-.66-16.63-1.06-1.41-.1-2.73-.42-1.27-2.23Z"/>
  <path class="cls-1" d="m146.66,197.12c35.67,0,71.33,0,107,0-.52,2.59-2.6,2.06-4.31,2.06-32.79.02-65.58.03-98.37,0-1.71,0-3.79.53-4.31-2.06Z"/>
  <path class="cls-1" d="m251.33,93.37c-.64-.12-1.29-.23-1.93-.35,1.22-1.03,2.7-.84,4.12-.84,23.9,0,47.81,0,71.71.01.51,0,1.02.16,1.52,1.18h-75.42Z"/>
  <path class="cls-1" d="m128.42,84.6c1.81-4.18.46-7.17-2.99-10.01-2.48-2.05-5.72-3.73-6.45-7.42,6.14.81,8.14,6.6,11.67,10.34.98,1.04,1.01,5.47-2.23,7.08Z"/>
  <path class="cls-1" d="m118.68,66.83c-3-2.42-3.56-5.61-1.31-8.44,2.22-2.8,5.24-2.6,7.75.22-6.54-.71-7.08,3.29-6.44,8.22Z"/>
  <path class="cls-1" d="m277.51,159.29c.66,0,1.33,0,1.99,0-.15.59-.09,1.38-.98,1.38-.87,0-.85-.79-1.01-1.38Z"/>
</svg>