<?xml version="1.0" encoding="UTF-8"?>
<svg id="Laag_1" data-name="Laag 1" xmlns="http://www.w3.org/2000/svg" viewBox="0 0 355.39 201.76">
  <defs>
    <style>
      .cls-1 {
        fill: #192e4d;
      }

      .cls-1, .cls-2, .cls-3, .cls-4, .cls-5 {
        stroke-width: 0px;
      }

      .cls-2 {
        fill: #1e3056;
      }

      .cls-3 {
        fill: #203659;
      }

      .cls-4 {
        fill: #a3d2d2;
      }

      .cls-5 {
        fill: #fafaf6;
      }
    </style>
  </defs>
  <path class="cls-3" d="m312.13,180.1c-1.68-.96-3.53-.54-5.29-.54-86.28-.03-172.57,0-258.85-.16-4.5,0-5.6,1.46-5.2,5.51.3,3.04.23,6.13.04,9.18-.28,4.5-2.41,7.5-7.3,7.66-4.64.15-7.68-2.69-8.09-7.54-.14-1.61-.14-3.25-.04-4.86.36-5.52.55-9.23-7.31-10.91C7.62,175.77.23,163.93.15,151.02c-.09-13.69-.32-27.4.05-41.08.4-14.86,6.91-26.29,20.82-32.56,3.05-1.38,2.44-2.17.73-3.99-13.86-14.71-12.85-42.12,5.02-57.74,16.01-14,39.88-13.03,55.71,2.77,2.61,2.6,3.57,2.7,5.79-.4C99.94,1.74,112.88-3.03,132.29,1.79c7.25,1.8,14.4,4.14,21.44,6.66,9.34,3.35,18.92,3.8,28.71,3.82,11.51.02,23.11-1.2,34.52.7,21.55,3.59,33.81,18.27,34.05,39.97q.07,6.81,7.13,6.81c15.67,0,31.34-.11,47.01.06,14.32.15,24.1,7.12,27.96,19.48,1.49,4.79,1.38,9.62,0,14.37-.73,2.51-.98,3.74,2.46,4.07,12.76,1.2,19.68,9.01,19.74,21.82.05,10.63-.23,21.27.08,31.89.38,13.13-8.24,25.05-23.7,28.27-2.44.51-3.47,1.17-3.32,3.68.16,2.69-.02,5.41.07,8.11.14,4.25-.66,8.14-5.15,9.69-4.28,1.49-7.74-.18-10.19-3.94-.85-5.68.73-11.5-.96-17.13Zm-10.78-39.12c11.99,0,23.99.02,35.98-.06,1.97-.01,4.81.83,4.95-2.47.12-2.76,1.06-5.72-.92-8.29-.1-2.63-.36-5.26-.26-7.88.15-3.9-.43-7.38-4.09-9.61.34-4.07-2.77-1.92-4.05-1.92-74.27-.12-148.54-.11-222.81-.08-1.91,0-4.01-.59-5.6,1.13-6.88.33-12.75-2.31-17.69-6.75-4.55-4.08-8.94-8.41-12.83-13.11-2.2-2.66-4.55-3.9-7.74-3.91-10.09-.02-20.18.17-30.27.02-10.97-.16-22.01,12.69-21.47,22.27.44,7.91.11,15.86.13,23.79,0,1.6-.25,3.29,1.22,4.5.5,2.91,2.81,2.14,4.68,2.33,6.23.64,12.44.21,18.67.18,72.23-.27,144.45-.15,216.68-.13-.34.6-.53,1.42-1.04,1.76-1.79,1.2-5.42,1.02-4.78,4.04.69,3.27,4.09,2.79,6.77,2.79,4.65,0,9.3.05,13.95-.02,4.13-.05,8.2-5.31,12.43-.14.14.17,1.13-.07,1.47-.39,3.38-3.21,7.75-3.25,11.94-3.78,2.67-.34,4.26-1.62,4.69-4.3Zm-104.56-44.13c-15.37-.25-20.22-11.78-25.27-23.09-1.47-3.29-3.18-6.47-4.47-9.82-1.38-3.56-3.83-5.23-7.51-5.99-6.16-1.26-12.25-2.89-18.32-4.52-3.29-.88-6.75-1.62-9.66-3.25-3.51-1.97-6.28-5.15-4.73-9.66,1.69-4.9,5.61-3.39,9.09-2.45,9.21,2.48,18.33,5.32,27.62,7.42,7.36,1.66,11.88,5.91,14.67,12.67,2.26,5.48,4.68,10.92,7.31,16.23,2,4.04,4.83,7.98,10.03,5.61,5.39-2.46,2.91-7.12,1.46-10.79-3.56-9.02-7.88-17.75-11.2-26.85-3.01-8.24-8.84-12.24-16.96-13.96-3.86-.82-7.64-2.07-11.47-3.07-12.01-3.13-23.73-7.52-36.08-9.14-14.38-1.89-27.71,11.9-25.73,26.15,1.45,10.4-.68,20.01-6.48,28.84-5.83,8.87-5.18,8.43,1.78,16.72,6.01,7.15,12.91,9.01,21.72,8.9,25.74-.31,51.49-.01,77.24.04,2.32,0,4.63,0,6.95,0Zm-19.1,54.19v-.06c-52.58,0-105.16,0-157.75,0-5.3,0-6.63,2.18-3.98,6.93,2.93,5.28,7.65,6.99,13.58,6.98,54.2-.07,108.41.02,162.61.03,44.66,0,89.32-.06,133.98,0,5.2,0,9.61-1.26,12.84-5.48,1.55-2.03,3.04-4.41,1.83-6.95-1.16-2.43-3.85-1.41-5.89-1.42-52.4-.05-104.8-.04-157.21-.04Zm83.96-54.71c10.22,0,17.78.04,25.35-.01,7.39-.05,14.79.1,22.15-.37,7.53-.49,11.15-4.66,10.82-11.46-.27-5.62-4.81-9.43-11.59-9.64-2.7-.08-5.4-.04-8.11-.04-22.7,0-45.4.05-68.1-.06-6.23-.03-9.98-3.01-10.19-7.44-.22-4.57,2.81-7.17,9.56-7.67,2.84-.21,4.2-1.39,4.77-4.08,2.86-13.45-6.22-26.65-19.99-28.24-6.59-.76-13.31-.39-19.96-.65-2.99-.11-3.39.87-2.1,3.44,2.34,4.67,4.73,9.34,6.54,14.23,1.27,3.45,3.98,6.71,3.12,10.65-1.41,6.45-.9,12.94-.7,19.39.37,12.32,8.54,20.53,20.57,21.43,13.5,1.01,27.02.3,37.87.55ZM80.81,48.36c.17-14.51-12.78-27.31-27.72-27.4-14.55-.08-25.73,11.2-25.9,26.13-.17,14.89,11.87,26.99,27,27.15,15.12.16,26.44-10.85,26.61-25.89Zm231.5,129.97c0-.35,0-.71,0-1.06H65.49v1.06h246.82Z"/>
  <path class="cls-4" d="m312.13,180.1c1.69,5.63.11,11.45.96,17.13-2.18-5.6-.58-11.42-.96-17.13Z"/>
  <path class="cls-5" d="m15.89,138.63c-1.47-1.21-1.21-2.9-1.22-4.5-.02-7.93.31-15.88-.13-23.79-.54-9.58,10.5-22.43,21.47-22.27,10.09.14,20.18-.04,30.27-.02,3.19,0,5.54,1.24,7.74,3.91,3.88,4.7,8.28,9.04,12.83,13.11,4.95,4.43,10.81,7.08,17.69,6.75,1.6.13,3.2.36,4.81.36,71.77.04,143.53.06,215.3.06,4.13,0,8.26-.37,12.36.45,3.66,2.23,4.24,5.71,4.09,9.61-.1,2.62.16,5.25.26,7.88-.63,8.29-.63,8.32-9.08,8.33-69.83.03-139.66.03-209.49.06-35.63.01-71.26.05-106.89.08Z"/>
  <path class="cls-5" d="m196.79,96.85c-2.32,0-4.63,0-6.95,0-25.75-.06-51.5-.36-77.24-.04-8.81.11-15.72-1.75-21.72-8.9-6.97-8.29-7.61-7.85-1.78-16.72,5.79-8.83,7.92-18.44,6.48-28.84-1.98-14.25,11.35-28.04,25.73-26.15,12.36,1.62,24.07,6.01,36.08,9.14,3.83,1,7.6,2.24,11.47,3.07,8.12,1.72,13.95,5.72,16.96,13.96,3.32,9.1,7.63,17.83,11.2,26.85,1.45,3.67,3.94,8.33-1.46,10.79-5.2,2.37-8.03-1.57-10.03-5.61-2.63-5.32-5.05-10.75-7.31-16.23-2.78-6.75-7.3-11-14.67-12.67-9.29-2.1-18.41-4.94-27.62-7.42-3.48-.94-7.4-2.45-9.09,2.45-1.56,4.51,1.21,7.69,4.73,9.66,2.92,1.63,6.38,2.37,9.66,3.25,6.08,1.63,12.17,3.26,18.32,4.52,3.69.76,6.13,2.42,7.51,5.99,1.3,3.35,3.01,6.54,4.47,9.82,5.05,11.31,9.9,22.84,25.27,23.09Z"/>
  <path class="cls-4" d="m177.69,151.04c52.4,0,104.8,0,157.21.04,2.03,0,4.73-1.01,5.89,1.42,1.21,2.53-.27,4.91-1.83,6.95-3.23,4.22-7.64,5.49-12.84,5.48-44.66-.07-89.32,0-133.98,0-54.2,0-108.41-.1-162.61-.03-5.93,0-10.64-1.7-13.58-6.98-2.64-4.75-1.31-6.93,3.98-6.93,52.58,0,105.16,0,157.75,0v.06Z"/>
  <path class="cls-5" d="m261.65,96.33c-10.86-.25-24.38.47-37.87-.55-12.03-.9-20.19-9.1-20.57-21.43-.2-6.44-.71-12.94.7-19.39.86-3.93-1.84-7.2-3.12-10.65-1.8-4.88-4.2-9.56-6.54-14.23-1.29-2.58-.89-3.56,2.1-3.44,6.65.26,13.37-.11,19.96.65,13.77,1.59,22.85,14.79,19.99,28.24-.57,2.69-1.94,3.87-4.77,4.08-6.74.51-9.77,3.11-9.56,7.67.21,4.44,3.96,7.41,10.19,7.44,22.7.11,45.4.05,68.1.06,2.7,0,5.41-.04,8.11.04,6.77.21,11.32,4.02,11.59,9.64.33,6.81-3.29,10.98-10.82,11.46-7.36.48-14.76.32-22.15.37-7.57.05-15.13.01-25.35.01Z"/>
  <path class="cls-5" d="m80.81,48.36c-.17,15.04-11.49,26.05-26.61,25.89-15.13-.16-27.17-12.27-27-27.15.17-14.93,11.35-26.21,25.9-26.13,14.94.08,27.88,12.88,27.72,27.4Z"/>
  <path class="cls-1" d="m15.89,138.63c35.63-.03,71.26-.07,106.89-.08,69.83-.03,139.66-.03,209.49-.06,8.45,0,8.45-.04,9.08-8.33,1.99,2.57,1.04,5.53.92,8.29-.14,3.3-2.98,2.46-4.95,2.47-11.99.07-23.99.05-35.98.06-15.14.01-30.29.02-45.43.03-72.23-.02-144.45-.14-216.68.13-6.23.02-12.45.45-18.67-.18-1.87-.19-4.18.58-4.68-2.33Z"/>
  <path class="cls-1" d="m312.31,178.34H65.49v-1.06h246.82c0,.35,0,.71,0,1.06Z"/>
  <path class="cls-1" d="m337,112.68c-4.1-.82-8.23-.45-12.36-.45-71.77,0-143.53-.02-215.3-.06-1.6,0-3.2-.24-4.81-.36,1.59-1.72,3.69-1.13,5.6-1.13,74.27-.03,148.54-.03,222.81.08,1.28,0,4.4-2.15,4.05,1.92Z"/>
  <path class="cls-2" d="m255.92,141.01c15.14-.01,30.29-.02,45.43-.03-.43,2.67-2.02,3.96-4.69,4.3-4.19.53-8.56.57-11.94,3.78-.34.32-1.33.56-1.47.39-4.23-5.17-8.3.09-12.43.14-4.65.06-9.3.01-13.95.02-2.68,0-6.08.49-6.77-2.79-.64-3.02,2.99-2.84,4.78-4.04.51-.34.7-1.16,1.04-1.76Z"/>
</svg>