<?xml version="1.0" encoding="UTF-8"?>
<svg id="Laag_1" data-name="Laag 1" xmlns="http://www.w3.org/2000/svg" viewBox="0 0 353.66 188.89">
  <defs>
    <style>
      .cls-1 {
        fill: #192e4d;
      }

      .cls-1, .cls-2, .cls-3, .cls-4, .cls-5, .cls-6 {
        stroke-width: 0px;
      }

      .cls-2 {
        fill: #1e3056;
      }

      .cls-3 {
        fill: #203659;
      }

      .cls-4 {
        fill: #a3d2d2;
      }

      .cls-5 {
        fill: #cee8e6;
      }

      .cls-6 {
        fill: #fafaf6;
      }
    </style>
  </defs>
  <path class="cls-3" d="m2.19,91.88c2.68-9.54,8.93-16.22,17.55-20.44,3.65-1.79,2.77-2.69.99-5.18C7.47,47.73,10.21,13.11,41.07,2.22c17.2-6.07,37.47.69,47.84,15.83.7,1.03,1.47,2.02,2.58,3.53,9.87-12.87,23.69-14.74,38.38-14.85,12.78-.09,25.59-.44,38.34-1.42,13.01-.99,25.38,1.39,37.81,4.74,25.9,6.98,52.09,12.96,77.78,20.63,10.67,3.19,21.37,6.43,32.09,9.53,4.13,1.19,8.22,2.8,12.32,3.64,16.65,3.41,27.82,23.26,21.7,42.75-.53,1.7-1.57,3.24-.47,5.12,5.82,9.95,3.77,20.86,3.78,31.52-2.7,1.78-2.69,3.57-.01,5.37.07,5.33,1.33,10.71-.76,15.93,0-3,0-5.99,0-8.99-.32,0-.64.02-.96.03,0,3.19,0,6.38,0,9.57-.05.63-.1,1.26-.15,1.89-1.35,1.34-2.4,2.77-1.35,4.79,0,0-.13.28-.13.28-4.48,1.51-8.86,2.3-12.51-1.84.02-1.1.03-2.21.05-3.31,4.56-.07,7.07-3.28,7.91-6.87.85-3.6-3.42-3.89-5.65-5.41-.44-.3-1.02-.42-1.42-.77-2.3-1.98-6.34-3.5-1.22-7.03,2.01-1.39.47-2.4-1.29-2.51-1.61-.1-3.24-.05-4.86-.05-67.66,0-135.31,0-202.97-.04-2.27,0-4.7.71-6.79-.9,1.97-.08,3.94-.24,5.91-.24,68.68,0,137.37,0,206.05-.03,2.08,0,4.34.73,6.21-.92,2.11-5.8,2.11-11.6,0-17.39-1.59-1.61-2.62.12-3.69.74-5.11,2.99-10.61,4.37-16.49,4.37-73.97-.03-147.94-.07-221.91-.06-14.76,0-25.01-6.75-30.78-20.22-1.01-2.35-2.05-3.42-4.7-3.17-7.27.69-14.27-.76-21.28-2.66-13.07-3.53-24.47,4.73-25.38,18.23-.35,5.2.07,10.45-.27,15.65-.28,4.12.86,5.54,5.28,5.47,13.84-.23,27.7.07,41.54.16-1.68,1.54-3.75.97-5.67.98-10.43.05-20.86,0-31.29.06-1.46,0-3.68-.62-3.71,1.85-.03,2.11,1.88,2.2,3.53,2.46,1.55.25,4.33-.97,4.18,1.79-.12,2.35-2.77,2.37-4.74,2.49-2.15.13-4.62-.25-4.23,3.2-1.51.5-3.03.49-4.56.1-.5-2.85-2.16-1.61-3.55-.95-3.65,1.72-6.09-.05-5.98-3.39.29-8.92-3.49-17.34-2.53-26.38.47-4.43,1.37-9.23-.88-13.63Zm206.49,2.06v-.02c36.94,0,73.87.1,110.81-.06,11.92-.05,20.07-11.36,17.13-23-2.19-8.66-8.74-12.44-16.56-14.51-20.66-5.45-41.36-10.73-62.05-16.08-9.06-2.34-18.4-3.94-27.11-7.22-14.84-5.59-30.15-10.62-45.6-11.94-23.26-1.98-46.79.16-70.15,1.77-5.67.39-10.26,3.67-12.55,9.07-1.81,4.28-3.59,8.69-4.01,13.4-1.18,13.09-7.67,23.42-16.99,32.09-2.45,2.28-2.26,4.18-1.3,6.63,2.52,6.46,8.29,9.85,17.04,9.86,37.12.03,74.23.01,111.35.01Zm-123.93,11.11c5.47,3.32,10.96,4.18,16.89,4.16,36.76-.14,73.52-.07,110.28-.07,14.24,0,28.47.04,42.71-.06,1.5-.01,4.32,1.19,4.2-1.65-.12-2.81,1.85-2.83,3.2-4.1,7.54-7.13,16.93-3.86,25.52-4.92,1.82-.22,2.89.57,3.32,2.64,1.23,5.92,6.59,7.53,11.24,3.54.72-.62,1.69-1.73,1.07-2.13-2.75-1.76-2.72-6.43-7.33-6.33-8.26.18-16.52-.57-24.75-.79-22.07-.61-44.16-.24-66.24-.17-3.02,0-6.06.93-9.05.76-11.4-.67-22.8-2.57-34.06,1.16-.94.31-2.39.28-3.12-.25-3.08-2.24-6.53-1.59-9.9-1.71-17.04-.6-34.07,2.98-51.12.04-3.13-.54-5,.38-3.43,4.09,1.94,4.58-.47,5.08-4.06,4.06-2.09-.59-3.82-.6-5.33,1.75Zm-29.17-35.63c14.9.14,27.48-11.88,27.43-26.21-.05-15.54-12.47-27.69-28.5-27.86-15.18-.16-26.38,11.14-26.47,26.69-.08,15.21,12.01,27.23,27.54,27.37Zm257.72,39.46v-.53h-9.23v.53h9.23Zm-41.53-.57c.05.15.1.3.15.45h6.57c-.02-.15-.03-.3-.05-.45h-6.67Z"/>
  <path class="cls-2" d="m337.35,150.28c3.65,4.14,8.03,3.34,12.51,1.84-4.74,7.43-10.51,13.49-19.96,14.16-2.76.2-3.78,1.17-3.58,3.92.21,2.85.02,5.72.1,8.58.11,3.89.02,7.73-4.34,9.44-4.31,1.7-7.64.03-10.26-3.5-.14-3.96-.37-7.91-.41-11.86-.06-7.16-.01-7.17-6.95-7.17-82.89-.04-165.78-.07-248.67-.1-12.74,0-12.84,0-12.72,12.63.04,4.05-.71,7.48-4.18,9.92-8.75.78-11.13-1.33-11.17-9.93,0-.9,0-1.8,0-2.69-.02-8.27-.31-7.49-7.76-10.27-9.41-3.51-17.03-9.58-18.86-20.51-.02-16.19-.03-32.37-.05-48.56-.27-1.6-.14-3.09,1.12-4.3,2.26,4.4,1.35,9.2.88,13.63-.96,9.04,2.82,17.46,2.53,26.38-.11,3.34,2.33,5.11,5.98,3.39,1.39-.65,3.05-1.9,3.55.95-.26.37-.52.74-.78,1.1-1.19,2.69,1.09,4.91,1,7.45,2.3,3.45,5.95,4.91,9.54,6.46-.46.18-1.14.14-.96.94.02.11.27.17.41.25,4.41,2.47,8.82-.08,13.23-.04,16.35.15,32.7.56,49.05.93,29.52.67,59.07.19,88.6.19,48.81,0,97.61.02,146.42-.06,2.07,0,4.89,1.31,5.95-2.02,1.02-.16,2.04-.32,3.07-.49,2.53,2.74,4.39-1.15,6.69-.68Z"/>
  <path class="cls-4" d="m38.92,188.14c3.47-2.43,4.22-5.86,4.18-9.92-.13-12.63-.03-12.64,12.72-12.63,82.89.03,165.78.06,248.67.1,6.94,0,6.89.02,6.95,7.17.03,3.96.26,7.91.41,11.86-3.69-.59-2.39-3.53-2.42-5.59-.19-11.67-.13-11.69-11.77-11.69-81.8,0-163.59,0-245.39-.01-6.98,0-6.94,0-7,7.21-.04,3.92.55,7.89-1.69,11.58-1.21,2.01-2.31,3.18-4.65,1.91Z"/>
  <path class="cls-3" d="m1.07,96.18c.02,16.19.03,32.37.05,48.56-1.75-10.11-.65-20.3-.81-30.45-.1-6.03-.97-12.14.76-18.11Z"/>
  <path class="cls-2" d="m351.5,145.17v-9.57c.32,0,.64-.02.96-.03,0,3,0,5.99,0,8.99-.32.2-.64.4-.96.61Z"/>
  <path class="cls-2" d="m353.22,128.63c-2.67-1.8-2.69-3.59.01-5.37,0,1.79,0,3.58-.01,5.37Z"/>
  <path class="cls-2" d="m350,151.84c-1.05-2.02,0-3.44,1.35-4.79.85,1.96-.59,3.28-1.35,4.79Z"/>
  <path class="cls-6" d="m208.67,93.95c-37.12,0-74.23.02-111.35-.01-8.75,0-14.52-3.4-17.04-9.86-.96-2.45-1.15-4.35,1.3-6.63,9.32-8.67,15.8-19,16.99-32.09.43-4.71,2.2-9.12,4.01-13.4,2.29-5.4,6.88-8.67,12.55-9.07,23.36-1.61,46.89-3.75,70.15-1.77,15.45,1.32,30.76,6.35,45.6,11.94,8.71,3.28,18.05,4.88,27.11,7.22,20.68,5.35,41.39,10.63,62.05,16.08,7.83,2.07,14.37,5.85,16.56,14.51,2.95,11.64-5.21,22.95-17.13,23-36.94.16-73.87.06-110.81.06v.02Z"/>
  <path class="cls-6" d="m61.61,123.32c-13.85-.09-27.7-.39-41.54-.16-4.42.07-5.56-1.35-5.28-5.47.35-5.2-.08-10.45.27-15.65.91-13.5,12.31-21.75,25.38-18.23,7.02,1.89,14.01,3.35,21.28,2.66,2.65-.25,3.69.82,4.7,3.17,5.77,13.47,16.03,20.22,30.78,20.22,73.97-.01,147.94.04,221.91.06,5.88,0,11.39-1.37,16.49-4.37,1.06-.62,2.1-2.35,3.69-.74,0,5.8,0,11.6,0,17.39-1.87,1.64-4.13.91-6.21.92-68.68.04-137.37.02-206.05.03-1.97,0-3.94.16-5.91.24-1.46,0-2.92,0-4.38,0-1.06,0-2.12,0-3.18,0-2.18,0-4.36,0-6.55,0-12.24-.44-24.48-.5-36.72-.07-2.89,0-5.79,0-8.68,0Z"/>
  <path class="cls-4" d="m14.36,137.35c.26-.37.52-.74.78-1.1,1.53.4,3.05.41,4.56-.1,28.76.57,57.52.34,86.28,0,2.51,0,5.02,0,7.53,0,6.86,0,13.72,0,20.58,0,1.79,0,3.58,0,5.38-.01,9.38,0,18.77-.02,28.15-.02,19.38.07,38.77.2,58.15.2,27.1,0,54.21-.12,81.31-.18h7.56c6.85.46,13.69.46,20.54.04.97.57,2.44-.18,3.1,1.19h-133.48c1.77,1,3.54,1,5.31,1,28.99,0,57.97-.08,86.96.08,12.13.07,24.26.69,36.39.96,1.8.04,4.16.88,4.9-1.97,2.85,3.25-.52,5.81-.98,8.69-2.23,1.61-4.47,3.23-6.7,4.84-1.02.16-2.04.32-3.07.49-.72-.06-1.43-.19-2.15-.19-100.19,0-200.37,0-300.56,0-3.58-1.56-7.23-3.02-9.54-6.46.92-.23,1.89-.66,1.8-1.69-.44-5,2.82-4.81,6.26-4.76,6.29.1,12.59.03,18.88.03,9.19,0,18.37,0,27.56,0,0-.34,0-.69-.01-1.03H14.36Zm64.03.36c4.46,1.25,9.11.18,13.71,1.2,4.31.96,8.72.98,12.92-1.2h-26.63Zm35.59.64c4.95,1.53,8.27,1.18,11.57.11-3.38-1.11-6.73-1.45-11.57-.11Zm46.37-.72c0,.15,0,.3,0,.45h14.37c0-.15,0-.3,0-.45h-14.37Zm35.55,0c0,.12,0,.24,0,.36h3.64c-.01-.12-.03-.24-.04-.36h-3.61Zm-85.5.37c-.24-.17-.44-.35-.66-.45-.11-.05-.29.06-.44.1.07.2.14.56.21.56.28,0,.56-.12.89-.21Zm78.49.23c.14-.09.29-.19.43-.28-.3-.13-.58-.29-.89-.36-.12-.03-.28.17-.43.26.3.13.59.25.89.38Z"/>
  <path class="cls-2" d="m314.63,136.14c-2.52,0-5.04,0-7.56,0-1.07-3.32-4.07-2.41-5.91-1.93-11.68,3.07-23.26-1.18-34.87-.21-.52.04-1.08-.07-1.6-.21-4.61-1.25-9.16-.48-13.82-.16-4.9.33-9.81,3-14.78.7-4.31-1.99-8.46-2.07-12.76.06-2.69,1.33-5.96,1.57-8.3.11-3.29-2.05-6.96-2.31-9.83-1.29-10.37,3.68-20.95,1.05-31.37,1.94-2.09.18-4.35-.63-6.22.98-9.38,0-18.77.02-28.15.02-1.8-1.45-3.59-1.45-5.38.01-6.86,0-13.72,0-20.57,0-2.51-1.53-5.02-1.52-7.53,0-28.76.34-57.52.56-86.28,0-.39-3.45,2.08-3.07,4.23-3.2,1.97-.12,4.62-.14,4.74-2.49.14-2.75-2.63-1.54-4.18-1.79-1.65-.26-3.56-.35-3.53-2.46.03-2.47,2.25-1.84,3.71-1.85,10.43-.06,20.86,0,31.29-.06,1.92,0,3.99.57,5.67-.98,2.89,0,5.79,0,8.68,0,4.83,2.13,9.91.96,14.84.88,7.29-.12,14.66,1.3,21.88-.81,2.18,0,4.36,0,6.55,0,1.06,1.13,2.12,1.12,3.18,0,1.46,0,2.92,0,4.38,0,2.08,1.62,4.52.9,6.79.9,67.66.04,135.31.04,202.97.04,1.62,0,3.24-.06,4.86.05,1.76.11,3.31,1.12,1.29,2.51-5.12,3.53-1.08,5.05,1.22,7.03.4.34.98.46,1.42.77,2.23,1.52,6.5,1.81,5.65,5.41-.85,3.6-3.35,6.81-7.91,6.87-.05-.28-.06-.57-.04-.85.46-2.88,3.83-5.43.98-8.69l-.08-.06c-.66-1.36-2.13-.62-3.1-1.19-.55-.96-1.28-1.9-2.4-1.92-5.5-.08-11.01-.08-16.52,0-.96.01-1.4.98-1.62,1.88Z"/>
  <path class="cls-2" d="m84.75,105.05c1.51-2.35,3.24-2.34,5.33-1.75,3.6,1.02,6,.52,4.06-4.06-1.57-3.71.31-4.63,3.43-4.09,17.05,2.93,34.08-.64,51.12-.04,3.37.12,6.83-.53,9.9,1.71.73.53,2.19.56,3.12.25,11.26-3.73,22.66-1.84,34.06-1.16,2.99.18,6.03-.75,9.05-.76,22.08-.07,44.18-.44,66.24.17,8.23.23,16.5.97,24.75.79,4.61-.1,4.58,4.57,7.33,6.33.62.4-.35,1.51-1.07,2.13-4.65,3.99-10.01,2.39-11.24-3.54-.43-2.06-1.5-2.86-3.32-2.64-8.59,1.06-17.98-2.21-25.52,4.92-1.34,1.27-3.32,1.29-3.2,4.1.12,2.85-2.7,1.64-4.2,1.65-14.23.1-28.47.06-42.71.06-36.76,0-73.52-.07-110.28.07-5.93.02-11.42-.84-16.89-4.16Z"/>
  <path class="cls-6" d="m55.58,69.42c-15.53-.14-27.62-12.16-27.54-27.37.08-15.56,11.28-26.86,26.47-26.69,16.03.17,28.46,12.31,28.5,27.86.04,14.33-12.53,26.34-27.43,26.21Z"/>
  <path class="cls-2" d="m339.3,122.2c0-5.8,0-11.6,0-17.39,2.11,5.8,2.11,11.6,0,17.39Z"/>
  <path class="cls-1" d="m337.36,146.12c-.02.29-.01.57.04.85-.02,1.1-.03,2.21-.05,3.31-2.3-.47-4.16,3.42-6.69.68,2.23-1.61,4.47-3.23,6.7-4.84Z"/>
  <path class="cls-2" d="m313.3,108.88h-9.23v-.53h9.23v.53Z"/>
  <path class="cls-2" d="m271.77,108.32h6.67c.02.15.03.3.05.45h-6.57c-.05-.15-.1-.3-.15-.45Z"/>
  <path class="cls-1" d="m24.89,151.27c100.19,0,200.37-.01,300.56,0,.72,0,1.43.12,2.15.19-1.06,3.33-3.88,2.02-5.95,2.02-48.81.07-97.61.06-146.42.06-29.54,0-59.08.48-88.6-.19-16.35-.37-32.7-.78-49.05-.93-4.41-.04-8.82,2.5-13.23.04-.14-.08-.39-.14-.41-.25-.18-.8.51-.76.96-.94Z"/>
  <path class="cls-5" d="m14.36,137.35h55.48c0,.34,0,.69.01,1.03-9.19,0-18.37,0-27.56,0-6.29,0-12.59.07-18.88-.03-3.44-.05-6.7-.24-6.26,4.76.09,1.03-.88,1.46-1.8,1.69.09-2.54-2.19-4.76-1-7.45Z"/>
  <path class="cls-3" d="m107.01,123.39c-7.22,2.11-14.59.7-21.88.81-4.92.08-10.01,1.25-14.84-.88,12.24-.44,24.48-.38,36.72.07Z"/>
  <path class="cls-3" d="m116.74,123.39c-1.06,1.12-2.12,1.13-3.18,0,1.06,0,2.12,0,3.18,0Z"/>
  <path class="cls-3" d="m167.6,136.13c1.87-1.62,4.12-.8,6.22-.98,10.42-.89,21,1.74,31.37-1.94,2.86-1.02,6.54-.76,9.83,1.29,2.35,1.46,5.62,1.22,8.3-.11,4.29-2.12,8.45-2.04,12.76-.06,4.97,2.29,9.88-.37,14.78-.7,4.66-.32,9.21-1.09,13.82.16.52.14,1.07.26,1.6.21,11.62-.97,23.19,3.27,34.87.21,1.85-.48,4.84-1.39,5.91,1.93-27.1.07-54.21.18-81.31.18-19.38,0-38.77-.13-58.15-.2Z"/>
  <path class="cls-5" d="m338.34,137.43c-.74,2.85-3.1,2.02-4.9,1.97-12.13-.27-24.26-.9-36.39-.96-28.99-.16-57.97-.07-86.96-.08-1.77,0-3.54,0-5.31-1h133.48s.08.06.08.06Z"/>
  <path class="cls-5" d="m78.39,137.71h26.63c-4.2,2.18-8.61,2.15-12.92,1.2-4.59-1.02-9.25.06-13.71-1.2Z"/>
  <path class="cls-3" d="m314.63,136.14c.23-.91.66-1.87,1.62-1.88,5.5-.08,11.01-.07,16.52,0,1.12.02,1.85.96,2.4,1.92-6.85.42-13.69.42-20.54-.05Z"/>
  <path class="cls-5" d="m113.98,138.35c4.84-1.34,8.19-1,11.57.11-3.3,1.07-6.63,1.42-11.57-.11Z"/>
  <path class="cls-5" d="m160.35,137.62h14.37c0,.15,0,.3,0,.45h-14.37c0-.15,0-.3,0-.45Z"/>
  <path class="cls-3" d="m105.97,136.15c2.51-1.52,5.02-1.53,7.53,0-2.51,0-5.02,0-7.53,0Z"/>
  <path class="cls-5" d="m195.89,137.62h3.61c.01.12.03.24.04.36h-3.64c0-.12,0-.24,0-.36Z"/>
  <path class="cls-3" d="m134.08,136.16c1.79-1.47,3.58-1.46,5.38-.01-1.79,0-3.58,0-5.38.01Z"/>
  <path class="cls-5" d="m110.4,137.99c-.33.09-.61.2-.89.21-.07,0-.14-.36-.21-.56.15-.04.32-.14.44-.1.23.09.42.27.66.45Z"/>
  <path class="cls-5" d="m188.89,138.22c-.3-.13-.59-.25-.89-.38.14-.09.31-.29.43-.26.31.07.6.23.89.36-.14.09-.29.19-.43.28Z"/>
</svg>